<svg width="27" height="30" viewBox="0 0 27 30" fill="none" xmlns="http://www.w3.org/2000/svg">
<g style="mix-blend-mode:multiply">
<path d="M0.669041 18.8621C0.676098 20.9368 1.30982 22.9721 2.49964 24.7491C3.59489 26.3835 5.1051 27.5818 7.11635 28.4117C9.18548 29.2656 11.4677 29.7172 13.7161 29.7172C14.8424 29.7172 15.9377 29.6015 16.9708 29.3728C18.0195 29.2331 18.8381 28.9875 19.7851 28.7038L19.8585 28.6812C21.3151 28.2465 22.6249 27.5084 23.7484 26.4893C26.0772 24.3764 26.9537 21.0117 26.9974 18.5671C27.0313 16.6546 26.7448 13.239 24.5839 10.8467C25.0031 10.4727 25.4858 9.95327 25.5395 9.3379C25.5578 9.12759 25.4915 8.92718 25.3517 8.77616C25.2148 8.62655 25.0172 8.54186 24.8112 8.54186C24.6235 8.54186 24.4329 8.61102 24.2875 8.7324C23.9177 9.04009 23.4633 9.22781 22.7943 9.33931C22.5586 9.17841 22.3214 9.03021 22.0829 8.8933C22.1521 8.80438 22.2156 8.71405 22.2735 8.62654C22.8084 7.80652 23.0554 6.94132 23.0102 6.05496C22.9749 5.36619 22.5614 4.15097 21.6002 3.81506C21.5198 3.78683 21.4351 3.77271 21.349 3.77271C21.0752 3.77271 20.8141 3.9195 20.6348 4.17638C20.4513 4.43749 20.3991 4.73388 20.4909 4.99076C20.5995 5.2928 20.8014 6.35841 18.8437 7.40285C18.68 7.49036 18.4994 7.56517 18.3032 7.62586C17.8092 7.54964 17.3138 7.49177 16.8325 7.43673C16.6518 7.41556 16.4683 7.3958 16.2849 7.37322C16.1959 7.03307 16.1155 6.70562 16.0689 6.37817C16.1522 5.28715 16.7337 4.04088 17.2361 3.49467C17.2799 3.44668 17.4112 3.36058 17.5156 3.29142C17.8501 3.07124 18.3088 2.7692 18.4429 2.22299C18.5092 1.952 18.4641 1.67254 18.3145 1.43542C18.0096 0.954132 17.3589 0.767826 16.8268 0.659148C16.6434 0.62104 16.4613 0.602692 16.2834 0.602692C15.1204 0.602692 14.1508 1.42272 13.6865 2.79743C13.551 3.19686 13.4691 3.59064 13.4324 3.99854C13.3661 4.44737 13.3449 4.94559 13.3717 5.44382C13.3858 5.70634 13.407 5.96745 13.4268 6.2201C13.4508 6.52355 13.4747 6.81006 13.486 7.10081C13.4197 7.10081 13.3505 7.10081 13.2814 7.10081C12.8297 7.10081 12.3865 7.12057 11.9377 7.14598C11.4593 6.84253 11.0401 6.4191 10.7154 5.91382C10.3174 5.2928 10.1043 4.66896 10.0224 3.89127C9.98575 3.54548 10.0281 3.16722 10.0676 2.80025C10.0718 2.76638 10.0775 2.73109 10.0831 2.6944C10.117 2.49116 10.1735 2.14959 10.0055 1.80803C9.88554 1.56104 9.63995 1.40861 9.36755 1.40861C9.28851 1.40861 9.19959 1.42413 9.12479 1.45095C8.45013 1.69653 8.21725 2.43752 8.062 2.92728C8.04506 2.98091 8.02812 3.03314 8.0126 3.0783C7.60188 4.28929 7.44803 5.48899 7.55389 6.64493C7.592 7.06129 7.69926 7.49177 7.86722 7.91943C7.09236 8.19889 6.3556 8.54751 5.67107 8.96105C2.52504 10.8665 0.653516 14.5672 0.669041 18.8621Z" fill="white"/>
<path d="M0.608372 18.807C0.615429 20.8818 1.24915 22.917 2.43897 24.694C3.53422 26.3298 5.04443 27.5267 7.05568 28.3566C9.12481 29.2105 11.4071 29.6621 13.6554 29.6621C14.7817 29.6621 15.877 29.5464 16.9101 29.3192C17.9588 29.1794 18.7774 28.9338 19.7245 28.6502L19.7979 28.6276C21.2544 28.1929 22.5628 27.4547 23.6877 26.4356C26.0165 24.3228 26.893 20.958 26.9368 18.5134C26.9706 16.6024 26.6841 13.1868 24.5219 10.793C24.941 10.419 25.4237 9.89818 25.4774 9.28422C25.4957 9.07392 25.4294 8.8735 25.2897 8.72248C25.1528 8.57287 24.9552 8.48819 24.7491 8.48819C24.5614 8.48819 24.3708 8.55735 24.2255 8.67873C23.8557 8.98641 23.4012 9.17413 22.7322 9.28563C22.4965 9.12473 22.2594 8.97654 22.0208 8.83963C22.09 8.75071 22.1535 8.66038 22.2114 8.57287C22.7463 7.75284 22.9933 6.88906 22.9481 6.00129C22.9129 5.31252 22.4993 4.0973 21.5381 3.76138C21.4577 3.73315 21.373 3.71904 21.2869 3.71904C21.0131 3.71904 20.752 3.86583 20.5727 4.12129C20.3893 4.3824 20.337 4.6788 20.4288 4.93567C20.5375 5.23772 20.7393 6.30333 18.7817 7.34777C18.6179 7.43528 18.4373 7.51008 18.2411 7.57077C17.7471 7.49456 17.2517 7.43669 16.7704 7.38164C16.5897 7.36047 16.4063 7.3393 16.2228 7.31813C16.1339 6.97798 16.052 6.65053 16.0068 6.32309C16.0901 5.23207 16.6716 3.9858 17.1741 3.43958C17.2178 3.39159 17.3491 3.3055 17.4535 3.23634C17.788 3.01616 18.2467 2.71412 18.3808 2.1679C18.4472 1.89691 18.402 1.61745 18.2524 1.38034C17.9475 0.899048 17.2969 0.712742 16.7648 0.604064C16.5813 0.565956 16.3992 0.547607 16.2214 0.547607C15.0584 0.547607 14.0887 1.36764 13.6244 2.74235C13.4889 3.14319 13.407 3.53556 13.3703 3.94345C13.304 4.39228 13.2828 4.89192 13.3082 5.38874C13.3223 5.65126 13.3435 5.91237 13.3633 6.16501C13.3873 6.46846 13.4098 6.75498 13.4225 7.04573C13.3562 7.04573 13.2871 7.04432 13.2179 7.04432C12.7662 7.04432 12.3231 7.06408 11.8742 7.08948C11.3958 6.78603 10.9766 6.36402 10.6505 5.85732C10.2525 5.2363 10.0394 4.61246 9.95754 3.83478C9.92084 3.48898 9.96318 3.11072 10.0027 2.74376C10.0069 2.70988 10.0126 2.6746 10.0182 2.6379C10.0521 2.43466 10.1086 2.0931 9.9406 1.75154C9.82063 1.50454 9.57505 1.35211 9.30264 1.35211C9.22361 1.35211 9.13469 1.36764 9.05988 1.39445C8.38523 1.64004 8.15235 2.38103 7.99709 2.87078C7.98016 2.92583 7.96322 2.97664 7.94769 3.02181C7.53697 4.23279 7.38313 5.43249 7.48899 6.58843C7.52709 7.0048 7.63295 7.43528 7.80232 7.86293C7.02746 8.14239 6.2907 8.49101 5.60617 8.90455C2.46437 10.8114 0.592847 14.5121 0.608372 18.807Z" fill="#F1F1F1"/>
<path d="M0.546222 18.7534C0.553279 20.8282 1.187 22.8634 2.37682 24.6404C3.47207 26.2748 4.98228 27.4731 6.99353 28.303C9.06266 29.1569 11.3449 29.6085 13.5933 29.6085C14.7196 29.6085 15.8148 29.4928 16.848 29.2641C17.8967 29.1244 18.7153 28.8788 19.6623 28.5951L19.7357 28.574C21.1923 28.1392 22.5021 27.4011 23.6256 26.382C25.9558 24.2692 26.8309 20.9044 26.8746 18.4598C26.9085 16.5488 26.622 13.1332 24.4611 10.7394C24.8789 10.3654 25.363 9.84457 25.4166 9.23061C25.435 9.02031 25.3687 8.81989 25.2289 8.66746C25.092 8.51926 24.8958 8.43317 24.6884 8.43317C24.5006 8.43317 24.3101 8.50233 24.1647 8.62371C23.7949 8.93139 23.3405 9.11911 22.6715 9.23061C22.4357 9.06971 22.1986 8.92151 21.9601 8.78461C22.0293 8.69569 22.0928 8.60536 22.1506 8.51785C22.6856 7.69782 22.9326 6.83263 22.8874 5.94626C22.8521 5.2575 22.4386 4.04228 21.4774 3.70636C21.397 3.67813 21.3123 3.66402 21.2262 3.66402C20.9524 3.66402 20.6912 3.8108 20.512 4.06627C20.3285 4.32738 20.2763 4.62378 20.368 4.88065C20.4767 5.18269 20.6785 6.24831 18.7209 7.29275C18.5572 7.38026 18.3765 7.45506 18.1804 7.51575C17.6864 7.43953 17.191 7.38167 16.7097 7.32662C16.529 7.30545 16.3455 7.28428 16.162 7.26311C16.0731 6.92296 15.9913 6.59551 15.9461 6.26807C16.0294 5.17705 16.6109 3.93077 17.1133 3.38456C17.1571 3.33657 17.2883 3.25048 17.3928 3.18132C17.7273 2.96114 18.186 2.6591 18.3201 2.11288C18.3864 1.84189 18.3413 1.56102 18.1916 1.32531C17.8868 0.844025 17.2361 0.657719 16.704 0.549041C16.5205 0.512344 16.3385 0.492584 16.1606 0.492584C14.9976 0.492584 14.028 1.31261 13.5636 2.68732C13.4296 3.08675 13.3463 3.48054 13.3096 3.88843C13.2432 4.33726 13.2221 4.83549 13.2475 5.33371C13.2616 5.59624 13.2828 5.85735 13.3025 6.10999C13.3265 6.41344 13.3491 6.69996 13.3618 6.99071C13.2955 6.99071 13.2277 6.9893 13.1572 6.9893C12.7055 6.9893 12.2623 7.01047 11.8135 7.03446C11.335 6.73101 10.9158 6.30759 10.5912 5.8023C10.1932 5.18128 9.97866 4.55744 9.89821 3.77834C9.86151 3.43255 9.90386 3.05429 9.94338 2.68732C9.94761 2.65345 9.95325 2.61816 9.9589 2.58147C9.99277 2.37823 10.0492 2.03666 9.88127 1.6951C9.7613 1.44811 9.51572 1.29568 9.24332 1.29568C9.16428 1.29568 9.07536 1.3112 9.00056 1.33943C8.3259 1.58501 8.09302 2.32459 7.93777 2.81576C7.92083 2.8694 7.90389 2.92162 7.88837 2.96678C7.47765 4.17777 7.3238 5.37747 7.42966 6.53341C7.46777 6.94978 7.57503 7.38026 7.74299 7.80791C6.96813 8.08737 6.23137 8.43599 5.54684 8.84953C2.40363 10.7563 0.532108 14.4571 0.546222 18.7534Z" fill="#E2E2E2"/>
<path d="M0.485675 18.6984C0.492732 20.7731 1.12645 22.8084 2.31627 24.5853C3.41152 26.2197 4.92173 27.418 6.93299 28.2479C9.00211 29.1018 11.2844 29.5535 13.5327 29.5535C14.659 29.5535 15.7543 29.4377 16.7874 29.2091C17.8361 29.0694 18.6547 28.8238 19.6018 28.5401L19.6752 28.5175C21.1317 28.0828 22.4415 27.3446 23.565 26.3256C25.8938 24.2127 26.7703 20.8479 26.8141 18.4034C26.848 16.4923 26.5614 13.0753 24.4006 10.683C24.8198 10.3089 25.3025 9.78813 25.3561 9.17417C25.3744 8.96387 25.3081 8.76345 25.1684 8.61243C25.0315 8.46282 24.8353 8.37813 24.6278 8.37813C24.4401 8.37813 24.2495 8.44729 24.1042 8.56867C23.7344 8.87636 23.2799 9.06408 22.6109 9.17558C22.3752 9.01468 22.1381 8.86648 21.8996 8.72958C21.9687 8.64066 22.0322 8.55033 22.0901 8.46282C22.625 7.64279 22.872 6.7776 22.8268 5.89123C22.7916 5.20247 22.378 3.98724 21.4169 3.65133C21.3364 3.6231 21.2517 3.60899 21.1656 3.60899C20.8918 3.60899 20.6307 3.75577 20.4515 4.01265C20.268 4.27376 20.2157 4.57016 20.3075 4.82703C20.4162 5.12907 20.618 6.19469 18.6604 7.23913C18.4967 7.32664 18.316 7.40144 18.1198 7.46213C17.6258 7.38591 17.1304 7.32805 16.6491 7.273C16.4685 7.25183 16.285 7.23066 16.1015 7.20949C16.0126 6.86934 15.9321 6.54189 15.8855 6.21445C15.9688 5.12343 16.5503 3.87715 17.0528 3.33094C17.0965 3.28295 17.2278 3.19686 17.3322 3.1277C17.6667 2.90752 18.1255 2.60548 18.2595 2.05926C18.3259 1.78827 18.2807 1.50881 18.1311 1.2717C17.8262 0.790405 17.1756 0.6041 16.6435 0.495421C16.46 0.457313 16.2779 0.438965 16.1001 0.438965C14.9371 0.438965 13.9674 1.25899 13.5031 2.6337C13.3676 3.03313 13.2857 3.42692 13.249 3.83481C13.1827 4.28364 13.1615 4.78328 13.1883 5.28009C13.2025 5.54262 13.2236 5.80373 13.2434 6.05637C13.2674 6.35982 13.2914 6.64634 13.3027 6.93709C13.2363 6.93709 13.1686 6.93568 13.098 6.93568C12.6464 6.93568 12.2032 6.95685 11.7544 6.98084C11.2759 6.67739 10.8567 6.25397 10.5321 5.74868C10.1341 5.12766 9.92094 4.50382 9.83908 3.72472C9.80238 3.37893 9.84472 3.00067 9.88424 2.6337C9.88847 2.59983 9.89412 2.56454 9.89977 2.52785C9.93364 2.32461 9.9901 1.98304 9.82214 1.64148C9.70217 1.39449 9.45658 1.24206 9.18418 1.24206C9.10514 1.24206 9.01622 1.25758 8.94142 1.2844C8.26677 1.52998 8.03388 2.27097 7.87863 2.76073C7.86169 2.81436 7.84476 2.86659 7.82923 2.91175C7.41851 4.12274 7.26467 5.32244 7.37052 6.47838C7.40863 6.89474 7.5159 7.32522 7.68386 7.75288C6.90899 8.03234 6.17224 8.38096 5.4877 8.7945C2.34168 10.7027 0.471561 14.402 0.485675 18.6984Z" fill="#D4D4D4"/>
<path d="M0.424884 18.6433C0.431941 20.718 1.06566 22.7533 2.25548 24.5303C3.35073 26.1647 4.86094 27.363 6.8722 28.1929C8.94132 29.0468 11.2236 29.4984 13.4719 29.4984C14.5982 29.4984 15.6935 29.3827 16.7266 29.154C17.7753 29.0143 18.5939 28.7687 19.541 28.485L19.6144 28.4624C21.071 28.0277 22.3807 27.2896 23.5042 26.2705C25.833 24.1576 26.7095 20.7928 26.7533 18.3483C26.7872 16.4372 26.5006 13.0202 24.3384 10.6279C24.7576 10.2539 25.2403 9.73306 25.2939 9.11909C25.3122 8.90879 25.2459 8.70837 25.1062 8.55594C24.9693 8.40633 24.7731 8.32165 24.5656 8.32165C24.3779 8.32165 24.1873 8.39081 24.042 8.51219C23.6722 8.81987 23.2177 9.00759 22.5487 9.11909C22.313 8.95819 22.0773 8.80999 21.8374 8.67309C21.9065 8.58417 21.97 8.49384 22.0279 8.40633C22.5628 7.5863 22.8098 6.72111 22.7646 5.83475C22.7294 5.14739 22.3158 3.93076 21.3561 3.59484C21.2756 3.56661 21.1909 3.5525 21.1048 3.5525C20.831 3.5525 20.5699 3.69929 20.3907 3.95616C20.2072 4.21727 20.155 4.51367 20.2467 4.77054C20.3554 5.07259 20.5572 6.1382 18.5996 7.18264C18.4359 7.27015 18.2552 7.34495 18.059 7.40564C17.565 7.32943 17.0696 7.27156 16.5883 7.21651C16.4077 7.19534 16.2242 7.17417 16.0407 7.153C15.9518 6.81285 15.8699 6.48541 15.8248 6.15796C15.908 5.06694 16.4895 3.82067 16.992 3.27445C17.0357 3.22646 17.167 3.14037 17.2714 3.07121C17.606 2.85103 18.0647 2.54899 18.1987 2.00277C18.2651 1.73178 18.2199 1.45232 18.0703 1.21521C17.7654 0.733917 17.1148 0.547612 16.5827 0.438933C16.3992 0.400825 16.2171 0.382477 16.0393 0.382477C14.8763 0.382477 13.9067 1.2025 13.4423 2.57722C13.3068 2.97664 13.2249 3.37043 13.1882 3.77832C13.1219 4.22715 13.1007 4.72538 13.1276 5.22361C13.1417 5.48613 13.1628 5.74724 13.1826 5.99988C13.2066 6.30333 13.2292 6.58985 13.2419 6.8806C13.1755 6.8806 13.1078 6.8806 13.0372 6.8806C12.5856 6.8806 12.1424 6.90036 11.6936 6.92576C11.2151 6.62231 10.7959 6.19889 10.4713 5.69361C10.0733 5.07259 9.85873 4.44874 9.77828 3.66965C9.74159 3.32385 9.78393 2.94559 9.82345 2.57863C9.82768 2.54475 9.83333 2.50947 9.83897 2.47277C9.87285 2.26953 9.92931 1.92797 9.76135 1.58641C9.64138 1.33941 9.39579 1.18698 9.12339 1.18698C9.04435 1.18698 8.95543 1.2025 8.88063 1.22932C8.20598 1.47491 7.97309 2.2159 7.81784 2.70565C7.8009 2.75929 7.78397 2.81151 7.76844 2.85667C7.35772 4.06766 7.20388 5.26736 7.30973 6.4233C7.34784 6.83967 7.4537 7.27015 7.62306 7.6978C6.8482 7.97726 6.11145 8.32588 5.42691 8.73942C2.28089 10.6476 0.41077 14.3469 0.424884 18.6433Z" fill="#C5C5C5"/>
<path d="M0.364215 18.5883C0.371272 20.663 1.00499 22.6983 2.19481 24.4752C3.29006 26.1096 4.80027 27.3079 6.81153 28.1378C8.88065 28.9917 11.1629 29.4434 13.4113 29.4434C14.5376 29.4434 15.6328 29.3277 16.666 29.099C17.7147 28.9593 18.5333 28.7137 19.4803 28.43L19.5537 28.4074C21.0103 27.9727 22.3201 27.2345 23.4436 26.2155C25.7738 24.1026 26.6489 20.7378 26.6926 18.2933C26.7265 16.3822 26.44 12.9652 24.2791 10.5729C24.6983 10.1988 25.181 9.67804 25.2346 9.06408C25.253 8.85378 25.1866 8.65336 25.0469 8.50092C24.91 8.35131 24.7138 8.26663 24.5063 8.26663C24.3186 8.26663 24.1281 8.33579 23.9827 8.45717C23.6129 8.76486 23.1585 8.95257 22.4894 9.06408C22.2537 8.90318 22.0166 8.75498 21.7781 8.61807C21.8473 8.52915 21.9108 8.43882 21.9686 8.35132C22.5036 7.53129 22.7506 6.66609 22.7054 5.77973C22.6701 5.09237 22.2566 3.87574 21.2954 3.53983C21.2149 3.5116 21.1303 3.49748 21.0442 3.49748C20.7703 3.49748 20.5092 3.64427 20.33 3.89973C20.1465 4.16085 20.0943 4.45724 20.186 4.71412C20.2947 5.01616 20.4965 6.08177 18.5389 7.12621C18.3752 7.21372 18.1945 7.28852 17.9983 7.34922C17.5044 7.273 17.0089 7.21513 16.5277 7.16009C16.347 7.13892 16.1635 7.11774 15.98 7.09657C15.8911 6.75642 15.8093 6.42898 15.7641 6.10153C15.8474 5.01051 16.4289 3.76424 16.9313 3.21802C16.9751 3.17004 17.1063 3.08394 17.2108 3.01478C17.5453 2.7946 18.004 2.49256 18.1381 1.94635C18.2044 1.67536 18.1592 1.3959 18.0096 1.15878C17.7048 0.67749 17.0541 0.491185 16.522 0.382506C16.3385 0.34581 16.1565 0.32605 15.9786 0.32605C14.8156 0.32605 13.846 1.14608 13.3816 2.52079C13.2475 2.92022 13.1643 3.314 13.1276 3.7219C13.0612 4.17073 13.0401 4.66895 13.0669 5.16718C13.081 5.4297 13.1022 5.69081 13.1219 5.94345C13.1459 6.24691 13.1685 6.53342 13.1812 6.82417C13.1149 6.82417 13.0457 6.82276 12.9766 6.82276C12.5249 6.82276 12.0817 6.84252 11.6329 6.86793C11.1544 6.56447 10.7352 6.14105 10.4106 5.63577C10.0126 5.01475 9.79948 4.3909 9.71762 3.61181C9.68092 3.26601 9.72326 2.88776 9.76278 2.52079C9.76701 2.48692 9.77266 2.45163 9.77831 2.41493C9.81218 2.21169 9.86864 1.87013 9.70068 1.52857C9.58071 1.28157 9.33512 1.12914 9.06272 1.12914C8.98368 1.12914 8.89476 1.14467 8.81996 1.17148C8.14531 1.41707 7.91242 2.15665 7.75717 2.64782C7.74023 2.70286 7.7233 2.75367 7.70777 2.79884C7.29705 4.00982 7.14321 5.20952 7.24906 6.36546C7.28717 6.78183 7.39444 7.21231 7.5624 7.63997C6.78753 7.91942 6.05078 8.26804 5.36624 8.68158C2.22022 10.5926 0.350101 14.2933 0.364215 18.5883Z" fill="#B7B7B7"/>
<path d="M0.303563 18.5346C0.31062 20.6094 0.944342 22.6446 2.13416 24.4216C3.22941 26.056 4.73962 27.2543 6.75087 28.0842C8.82 28.9381 11.1022 29.3898 13.3506 29.3898C14.4769 29.3898 15.5722 29.274 16.6053 29.0468C17.654 28.9071 18.4726 28.6615 19.4197 28.3778L19.4931 28.3552C20.9496 27.9205 22.2594 27.1823 23.3829 26.1633C25.7117 24.0504 26.5896 20.6856 26.632 18.241C26.6658 16.3286 26.3793 12.9144 24.2185 10.5206C24.6362 10.1466 25.1203 9.62582 25.174 9.01185C25.1923 8.80155 25.126 8.60113 24.9863 8.4487C24.8494 8.29909 24.6532 8.21441 24.4457 8.21441C24.258 8.21441 24.0674 8.28357 23.9221 8.40495C23.5523 8.71263 23.0978 8.90035 22.4288 9.01185C22.1931 8.85095 21.956 8.70275 21.7174 8.56585C21.7866 8.47693 21.8501 8.3866 21.908 8.29909C22.4415 7.47906 22.6899 6.61387 22.6447 5.72751C22.6095 5.03874 22.1959 3.82352 21.2347 3.4876C21.1543 3.45937 21.0696 3.44526 20.9835 3.44526C20.7097 3.44526 20.4486 3.59205 20.2693 3.84892C20.0859 4.11003 20.0336 4.40643 20.1254 4.66331C20.2341 4.96535 20.4359 6.03096 18.4783 7.0754C18.3145 7.16291 18.1339 7.23771 17.9377 7.2984C17.4437 7.22219 16.9469 7.16432 16.4656 7.10927C16.2849 7.0881 16.1015 7.06693 15.918 7.04576C15.829 6.70561 15.7486 6.37817 15.702 6.05072C15.7853 4.9597 16.3668 3.71343 16.8693 3.16721C16.913 3.11922 17.0443 3.03313 17.1487 2.96397C17.4832 2.74379 17.9419 2.44175 18.076 1.89553C18.1423 1.62454 18.0972 1.34509 17.9476 1.10797C17.6427 0.626679 16.9921 0.440373 16.4599 0.331694C16.2765 0.293586 16.0944 0.275238 15.9166 0.275238C14.7536 0.275238 13.7839 1.09527 13.3196 2.46998C13.1841 2.86941 13.1022 3.26319 13.0655 3.66967C12.9992 4.1185 12.978 4.61814 13.0034 5.11496C13.0175 5.37748 13.0387 5.63859 13.0585 5.89123C13.0824 6.19468 13.105 6.4812 13.1177 6.77195C13.0514 6.77195 12.9837 6.77054 12.9131 6.77054C12.4614 6.77054 12.0182 6.79171 11.5694 6.8157C11.091 6.51225 10.6718 6.08883 10.3457 5.58354C9.94771 4.96252 9.73459 4.33868 9.65273 3.561C9.61603 3.2152 9.65696 2.83553 9.69789 2.46998C9.70213 2.4361 9.70777 2.40082 9.71342 2.36412C9.74729 2.16088 9.80375 1.81932 9.63579 1.47776C9.51582 1.23076 9.27024 1.07833 8.99784 1.07833C8.9188 1.07833 8.82988 1.09385 8.75507 1.12067C8.08042 1.36626 7.84613 2.10725 7.69228 2.597C7.67535 2.65064 7.65841 2.70286 7.64288 2.74802C7.23216 3.95901 7.07832 5.15871 7.18418 6.31465C7.22228 6.73102 7.32955 7.1615 7.49751 7.58915C6.72265 7.86861 5.98589 8.21723 5.30136 8.63077C2.15956 10.5376 0.288037 14.2383 0.303563 18.5346Z" fill="#A8A8A8"/>
<path d="M0.242894 18.4795C0.249951 20.5543 0.883673 22.5896 2.07349 24.3665C3.16874 26.0009 4.67895 27.1992 6.69021 28.0291C8.75933 28.883 11.0416 29.3347 13.2899 29.3347C14.4163 29.3347 15.5115 29.219 16.5447 28.9903C17.5933 28.8506 18.4119 28.605 19.359 28.3213L19.4324 28.2987C20.889 27.864 22.1988 27.1258 23.3222 26.1068C25.6511 23.9939 26.5275 20.6291 26.5713 18.1846C26.6052 16.2735 26.3187 12.8565 24.1564 10.4642C24.5756 10.0901 25.0583 9.56933 25.1119 8.95537C25.1302 8.74507 25.0639 8.54465 24.9242 8.39221C24.7873 8.2426 24.5911 8.15792 24.3836 8.15792C24.1959 8.15792 24.0054 8.22708 23.86 8.34846C23.4902 8.65615 23.0357 8.84386 22.3667 8.95537C22.131 8.79447 21.8939 8.64627 21.6554 8.50936C21.7245 8.41903 21.788 8.33011 21.8459 8.24261C22.3808 7.42258 22.6278 6.55738 22.5827 5.67102C22.5474 4.98225 22.1338 3.76703 21.1727 3.43111C21.0922 3.40289 21.0075 3.38877 20.9214 3.38877C20.6476 3.38877 20.3865 3.53556 20.2073 3.79244C20.0238 4.05355 19.9716 4.34994 20.0633 4.60682C20.172 4.90886 20.3738 5.97447 18.4162 7.01891C18.2525 7.10642 18.0718 7.18123 17.8756 7.24192C17.3816 7.1657 16.8862 7.10783 16.4049 7.05279C16.2243 7.03162 16.0408 7.01045 15.8573 6.98927C15.7684 6.64913 15.6865 6.32168 15.6414 5.99423C15.7246 4.90321 16.3061 3.65694 16.8086 3.11072C16.8523 3.06274 16.9836 2.97664 17.088 2.90748C17.4226 2.6873 17.8813 2.38526 18.0153 1.83905C18.0817 1.56806 18.0365 1.2886 17.8869 1.05148C17.582 0.570191 16.9314 0.383885 16.3993 0.275206C16.2158 0.237098 16.0337 0.21875 15.8559 0.21875C14.6929 0.21875 13.7233 1.03878 13.2589 2.41349C13.1234 2.81292 13.0415 3.2067 13.0048 3.6146C12.9385 4.06343 12.9173 4.56165 12.9442 5.05988C12.9583 5.3224 12.9794 5.58351 12.9992 5.83615C13.0232 6.13961 13.0458 6.42612 13.0585 6.71687C12.9921 6.71687 12.9244 6.71687 12.8538 6.71687C12.4022 6.71687 11.959 6.73663 11.5102 6.76204C11.0317 6.45858 10.6125 6.03516 10.2879 5.52988C9.88987 4.90886 9.67533 4.28502 9.59488 3.50592C9.5596 3.16012 9.60053 2.78187 9.64005 2.4149C9.64428 2.38103 9.64993 2.34574 9.65557 2.30905C9.68945 2.1058 9.7459 1.76424 9.57795 1.42268C9.45798 1.17568 9.21239 1.02325 8.93999 1.02325C8.85954 1.02325 8.77203 1.03878 8.69723 1.06559C8.02257 1.31118 7.78969 2.05217 7.63444 2.54193C7.6175 2.59556 7.60056 2.64778 7.58504 2.69295C7.17432 3.90394 7.01906 5.10363 7.12633 6.25958C7.16444 6.67594 7.27029 7.10642 7.43966 7.53408C6.6648 7.81354 5.92946 8.16215 5.24351 8.5757C2.09889 10.4839 0.227368 14.1832 0.242894 18.4795Z" fill="#9A9A9A"/>
<path d="M0.182103 18.4245C0.18916 20.4993 0.822882 22.5345 2.0127 24.3115C3.10795 25.9459 4.61816 27.1442 6.62941 27.9741C8.69854 28.828 10.9808 29.2797 13.2292 29.2797C14.3555 29.2797 15.4507 29.1639 16.4839 28.9367C17.5325 28.797 18.3512 28.5514 19.2982 28.2677L19.3716 28.2451C20.8282 27.8104 22.138 27.0722 23.2614 26.0532C25.5917 23.9403 26.4668 20.5755 26.5105 18.131C26.5444 16.2199 26.2579 12.8029 24.097 10.4105C24.5162 10.0365 24.9989 9.51713 25.0525 8.90175C25.0709 8.69145 25.0045 8.49103 24.8648 8.3386C24.7279 8.18899 24.5317 8.10431 24.3242 8.10431C24.1365 8.10431 23.946 8.17347 23.8006 8.29485C23.4308 8.60254 22.9763 8.79025 22.3073 8.90175C22.0716 8.74085 21.8345 8.59266 21.596 8.45575C21.6651 8.36683 21.7287 8.2765 21.7865 8.18899C22.3214 7.36897 22.5684 6.50377 22.5233 5.61741C22.488 4.93005 22.0745 3.71342 21.1133 3.3775C21.0328 3.34927 20.9481 3.33516 20.8621 3.33516C20.5882 3.33516 20.3271 3.48195 20.1479 3.73741C19.9644 3.99852 19.9122 4.29492 20.0039 4.55179C20.1126 4.85384 20.3144 5.91945 18.3568 6.96389C18.1931 7.0514 18.0124 7.1262 17.8162 7.18689C17.3222 7.11068 16.8268 7.05281 16.3455 6.99776C16.1649 6.97659 15.9814 6.95542 15.7979 6.93425C15.709 6.5941 15.6271 6.26666 15.582 5.93921C15.6652 4.84819 16.2467 3.60192 16.7492 3.0557C16.793 3.00771 16.9242 2.92162 17.0287 2.85246C17.3632 2.63228 17.8219 2.33024 17.956 1.78402C18.0223 1.51303 17.9771 1.23357 17.8275 0.996458C17.5227 0.515167 16.872 0.328862 16.3399 0.220183C16.1564 0.183487 15.9743 0.163727 15.7965 0.163727C14.6335 0.163727 13.6639 0.983755 13.1995 2.35847C13.0654 2.75789 12.9822 3.15168 12.9455 3.55957C12.8791 4.0084 12.858 4.50663 12.8848 5.00486C12.8989 5.26738 12.9201 5.52849 12.9398 5.78113C12.9638 6.08458 12.9864 6.3711 12.9991 6.66185C12.9328 6.66185 12.8636 6.66185 12.7944 6.66185C12.3428 6.66185 11.8996 6.68161 11.4508 6.70701C10.9723 6.40356 10.5531 5.98014 10.2285 5.47486C9.83049 4.85384 9.61595 4.22999 9.5355 3.4509C9.49881 3.1051 9.54115 2.72684 9.58067 2.35988C9.5849 2.326 9.59055 2.29072 9.59619 2.25402C9.63007 2.05078 9.68652 1.71063 9.51857 1.36766C9.3986 1.12066 9.15301 0.968229 8.88061 0.968229C8.80157 0.968229 8.71265 0.983755 8.63785 1.01057C7.96319 1.25616 7.73031 1.99715 7.57506 2.4869C7.55812 2.54195 7.54118 2.59276 7.52566 2.63793C7.11494 3.84891 6.96109 5.04861 7.06695 6.20455C7.10506 6.62092 7.21233 7.0514 7.38028 7.47905C6.60542 7.75851 5.86866 8.10713 5.18413 8.52067C2.0381 10.4289 0.166577 14.1282 0.182103 18.4245Z" fill="#8B8B8B"/>
<path d="M0.121434 18.3695C0.128491 20.4442 0.762213 22.4795 1.95203 24.2565C3.04728 25.8909 4.55749 27.0892 6.56875 27.9191C8.63787 28.773 10.9201 29.2246 13.1685 29.2246C14.2948 29.2246 15.39 29.1089 16.4232 28.8802C17.4719 28.7405 18.2905 28.4949 19.2375 28.2112L19.3109 28.1886C20.7675 27.7539 22.0773 27.0158 23.2008 25.9967C25.5296 23.8838 26.4075 20.5191 26.4498 18.0745C26.4837 16.162 26.1972 12.7464 24.0363 10.3541C24.4555 9.98007 24.9382 9.46067 24.9919 8.8453C25.0102 8.63358 24.9439 8.43458 24.8041 8.28214C24.6672 8.13253 24.471 8.04785 24.2636 8.04785C24.0758 8.04785 23.8853 8.11701 23.7399 8.23839C23.3701 8.54608 22.9157 8.7338 22.2467 8.8453C22.011 8.6844 21.7738 8.5362 21.5353 8.39929C21.6045 8.31037 21.668 8.22004 21.7259 8.13253C22.2608 7.31251 22.5078 6.44731 22.4626 5.56095C22.4273 4.87218 22.0138 3.65696 21.0526 3.32105C20.9722 3.29282 20.8875 3.2787 20.8014 3.2787C20.5276 3.2787 20.2665 3.42549 20.0872 3.68095C19.9037 3.94207 19.8515 4.23846 19.9432 4.49534C20.0519 4.79738 20.2538 5.86299 18.2961 6.90743C18.1324 6.99494 17.9517 7.06975 17.7556 7.13044C17.2616 7.05422 16.7662 6.99635 16.2849 6.94131C16.1042 6.92014 15.9207 6.90038 15.7373 6.87779C15.6483 6.53764 15.5679 6.2102 15.5213 5.88275C15.6046 4.79173 16.1861 3.54546 16.6885 2.99924C16.7323 2.95126 16.8636 2.86516 16.968 2.796C17.3025 2.57582 17.7612 2.27378 17.8953 1.72757C17.9616 1.45658 17.9165 1.17571 17.7669 0.94C17.462 0.45871 16.8113 0.272404 16.2792 0.163726C16.0957 0.127029 15.9137 0.107269 15.7358 0.107269C14.5743 0.107269 13.6032 0.927298 13.1388 2.30201C13.0034 2.70285 12.9215 3.09522 12.8848 3.50312C12.8185 3.95194 12.7973 4.45017 12.8241 4.9484C12.8382 5.21092 12.8594 5.47203 12.8791 5.72467C12.9031 6.02813 12.9257 6.31464 12.9384 6.60539C12.8721 6.60539 12.8029 6.60398 12.7338 6.60398C12.2821 6.60398 11.8389 6.62515 11.3915 6.64915C10.9131 6.34569 10.4939 5.92227 10.1678 5.41699C9.76982 4.79597 9.55669 4.17212 9.47483 3.39303C9.43814 3.04723 9.48048 2.66898 9.52 2.30201C9.52423 2.26814 9.52988 2.23285 9.53552 2.19615C9.5694 1.99291 9.62585 1.65135 9.4579 1.30979C9.33793 1.06279 9.09234 0.910361 8.81994 0.910361C8.7409 0.910361 8.65198 0.925886 8.57718 0.952703C7.90253 1.19829 7.66964 1.93787 7.51439 2.42904C7.49745 2.48267 7.48051 2.53489 7.46499 2.58006C7.05427 3.79104 6.90043 4.99074 7.00628 6.14668C7.04439 6.56305 7.15166 6.99353 7.31961 7.42119C6.54475 7.70064 5.808 8.04926 5.12346 8.4628C1.97743 10.3739 0.105908 14.0746 0.121434 18.3695Z" fill="#7D7D7D"/>
<path d="M0.0607648 18.3159C0.0678218 20.3906 0.701544 22.4259 1.89136 24.2028C2.98661 25.8372 4.49682 27.0355 6.50808 27.8654C8.5772 28.7193 10.8594 29.171 13.1078 29.171C14.2341 29.171 15.328 29.0553 16.3625 28.8266C17.4112 28.6869 18.2298 28.4413 19.1769 28.1576L19.2503 28.135C20.7068 27.7003 22.0166 26.9621 23.1401 25.9431C25.4689 23.8302 26.3454 20.4654 26.3892 18.0209C26.423 16.1084 26.1365 12.6928 23.9757 10.3005C24.3948 9.92644 24.8776 9.40563 24.9312 8.79167C24.9495 8.58137 24.8832 8.38095 24.7435 8.22852C24.6066 8.07891 24.4104 7.99422 24.2029 7.99422C24.0152 7.99422 23.8246 8.06338 23.6793 8.18476C23.3095 8.49245 22.855 8.68017 22.186 8.79167C21.9503 8.63077 21.7146 8.48257 21.4746 8.34566C21.5438 8.25675 21.6073 8.16642 21.6652 8.07891C22.2001 7.25888 22.4471 6.3951 22.4019 5.50732C22.3667 4.81856 21.9531 3.60333 20.9919 3.26742C20.9115 3.23919 20.8268 3.22508 20.7407 3.22508C20.4669 3.22508 20.2058 3.37186 20.0265 3.62874C19.8431 3.88985 19.7908 4.18624 19.8826 4.44312C19.9913 4.74516 20.1931 5.81078 18.2355 6.85522C18.0717 6.94273 17.8911 7.01753 17.6949 7.07822C17.2009 7.002 16.7055 6.94414 16.2242 6.88909C16.0435 6.86792 15.8601 6.84675 15.6766 6.82558C15.5877 6.48543 15.5058 6.15798 15.4606 5.83054C15.5439 4.73952 16.1254 3.49324 16.6279 2.94703C16.6716 2.89904 16.8029 2.81294 16.9087 2.74379C17.2432 2.52361 17.702 2.22157 17.836 1.67535C17.9024 1.40436 17.8572 1.12349 17.7076 0.887785C17.4027 0.406494 16.7521 0.220188 16.22 0.11151C16.0365 0.073402 15.8544 0.0550537 15.6766 0.0550537C14.515 0.0550537 13.5439 0.875082 13.0796 2.24979C12.9441 2.64922 12.8622 3.043 12.8255 3.4509C12.7592 3.89973 12.738 4.39937 12.7648 4.89618C12.779 5.15871 12.8001 5.41982 12.8199 5.67246C12.8439 5.97591 12.8665 6.26243 12.8792 6.55318C12.8128 6.55318 12.7451 6.55177 12.6745 6.55177C12.2229 6.55177 11.7797 6.57294 11.3323 6.59693C10.8538 6.29348 10.4346 5.87006 10.1086 5.36477C9.71056 4.74375 9.49744 4.11991 9.41558 3.34081C9.38029 2.99502 9.42122 2.61676 9.46074 2.24979C9.46498 2.21592 9.47062 2.18063 9.47627 2.14394C9.51014 1.94069 9.5666 1.59913 9.39864 1.25757C9.27867 1.01058 9.03308 0.858145 8.76068 0.858145C8.68023 0.858145 8.59273 0.87367 8.51792 0.900487C7.84327 1.14607 7.61039 1.88706 7.45513 2.37682C7.43819 2.43186 7.42126 2.48268 7.40573 2.52784C6.99501 3.73883 6.83976 4.93853 6.94702 6.09447C6.98513 6.51083 7.09099 6.94131 7.26036 7.36897C6.48549 7.64843 5.75015 7.99705 5.06421 8.41059C1.91677 10.3188 0.0452393 14.0195 0.0607648 18.3159Z" fill="#6E6E6E"/>
<path d="M9.58432e-05 18.2608C0.00715288 20.3356 0.640875 22.3708 1.83069 24.1478C2.92594 25.7822 4.43615 26.9805 6.44741 27.8104C8.51653 28.6643 10.7988 29.1159 13.0472 29.1159C14.1735 29.1159 15.2687 29.0002 16.3019 28.7716C17.3505 28.6318 18.1691 28.3862 19.1162 28.1025L19.1896 28.08C20.6462 27.6452 21.956 26.9071 23.0794 25.888C25.4083 23.7752 26.2847 20.4104 26.3285 17.9658C26.3624 16.0548 26.0759 12.6377 23.915 10.2454C24.3342 9.87139 24.8169 9.35199 24.8705 8.73662C24.8889 8.52632 24.8225 8.3259 24.6828 8.17346C24.5459 8.02385 24.3483 7.93917 24.1422 7.93917C23.9545 7.93917 23.764 8.00833 23.6186 8.12971C23.2488 8.4374 22.7943 8.62511 22.1253 8.73662C21.8896 8.57572 21.6525 8.42752 21.414 8.29061C21.4831 8.20169 21.5466 8.11136 21.6045 8.02386C22.1394 7.20383 22.3864 6.33863 22.3413 5.45227C22.306 4.76491 21.8924 3.54828 20.9313 3.21236C20.8508 3.18414 20.7661 3.17002 20.68 3.17002C20.4062 3.17002 20.1451 3.31681 19.9659 3.57369C19.7824 3.8348 19.7302 4.13119 19.8219 4.38807C19.9306 4.69011 20.1324 5.75572 18.1748 6.80016C18.0111 6.88767 17.8304 6.96248 17.6342 7.02317C17.1402 6.94695 16.6448 6.88908 16.1635 6.83404C15.9829 6.81287 15.7994 6.79311 15.6159 6.77052C15.527 6.43038 15.4465 6.10293 15.4 5.77548C15.4832 4.68446 16.0647 3.43819 16.5672 2.89197C16.611 2.84399 16.7422 2.75789 16.8467 2.68873C17.1812 2.46855 17.6399 2.16651 17.774 1.6203C17.8403 1.34931 17.7951 1.06985 17.6455 0.832731C17.3407 0.351441 16.69 0.165135 16.1579 0.0564563C15.9744 0.0183483 15.7923 0 15.6145 0C14.4515 0 13.4819 0.820028 13.0175 2.19474C12.882 2.59417 12.8002 2.98795 12.7635 3.39585C12.6971 3.84468 12.676 4.3429 12.7028 4.84113C12.7169 5.10365 12.7381 5.36476 12.7578 5.6174C12.7818 5.92086 12.8058 6.20737 12.8171 6.49812C12.7508 6.49812 12.6816 6.49812 12.6124 6.49812C12.1608 6.49812 11.7176 6.51788 11.2688 6.54329C10.7903 6.23983 10.3711 5.81641 10.0465 5.31113C9.64848 4.69011 9.43395 4.06627 9.3535 3.28717C9.3168 2.94137 9.35914 2.56312 9.39866 2.19615C9.4029 2.16228 9.40854 2.12699 9.41419 2.0903C9.44806 1.88705 9.50452 1.54549 9.33656 1.20393C9.21659 0.956935 8.971 0.804503 8.6986 0.804503C8.61956 0.804503 8.53065 0.820028 8.45584 0.846845C7.78119 1.09243 7.54831 1.83342 7.39305 2.32318C7.37611 2.37681 7.35918 2.42903 7.34365 2.4742C6.93293 3.68519 6.77909 4.88488 6.88494 6.04083C6.92305 6.45719 7.03032 6.88767 7.19828 7.31533C6.42341 7.59479 5.68666 7.9434 5.00213 8.35695C1.8561 10.2652 -0.0154296 13.9645 9.58432e-05 18.2608Z" fill="#606060"/>
</g>
<path d="M9.58432e-05 18.2608C0.00715288 20.3356 0.640875 22.3708 1.83069 24.1478C2.92594 25.7822 4.43615 26.9805 6.44741 27.8104C8.51653 28.6643 10.7988 29.1159 13.0472 29.1159C14.1735 29.1159 15.2687 29.0002 16.3019 28.7716C17.3505 28.6318 18.1691 28.3862 19.1162 28.1025L19.1896 28.08C20.6462 27.6452 21.956 26.9071 23.0794 25.888C25.4083 23.7752 26.2847 20.4104 26.3285 17.9658C26.3624 16.0548 26.0759 12.6377 23.915 10.2454C24.3342 9.87139 24.8169 9.35199 24.8705 8.73662C24.8889 8.52632 24.8225 8.3259 24.6828 8.17346C24.5459 8.02385 24.3483 7.93917 24.1422 7.93917C23.9545 7.93917 23.764 8.00833 23.6186 8.12971C23.2488 8.4374 22.7943 8.62511 22.1253 8.73662C21.8896 8.57572 21.6525 8.42752 21.414 8.29061C21.4831 8.20169 21.5466 8.11136 21.6045 8.02386C22.1394 7.20383 22.3864 6.33863 22.3413 5.45227C22.306 4.76491 21.8924 3.54828 20.9313 3.21236C20.8508 3.18414 20.7661 3.17002 20.68 3.17002C20.4062 3.17002 20.1451 3.31681 19.9659 3.57369C19.7824 3.8348 19.7302 4.13119 19.8219 4.38807C19.9306 4.69011 20.1324 5.75572 18.1748 6.80016C18.0111 6.88767 17.8304 6.96248 17.6342 7.02317C17.1402 6.94695 16.6448 6.88908 16.1635 6.83404C15.9829 6.81287 15.7994 6.79311 15.6159 6.77052C15.527 6.43038 15.4465 6.10293 15.4 5.77548C15.4832 4.68446 16.0647 3.43819 16.5672 2.89197C16.611 2.84399 16.7422 2.75789 16.8467 2.68873C17.1812 2.46855 17.6399 2.16651 17.774 1.6203C17.8403 1.34931 17.7951 1.06985 17.6455 0.832731C17.3407 0.351441 16.69 0.165135 16.1579 0.0564563C15.9744 0.0183483 15.7923 0 15.6145 0C14.4515 0 13.4819 0.820028 13.0175 2.19474C12.882 2.59417 12.8002 2.98795 12.7635 3.39585C12.6971 3.84468 12.676 4.3429 12.7028 4.84113C12.7169 5.10365 12.7381 5.36476 12.7578 5.6174C12.7818 5.92086 12.8058 6.20737 12.8171 6.49812C12.7508 6.49812 12.6816 6.49812 12.6124 6.49812C12.1608 6.49812 11.7176 6.51788 11.2688 6.54329C10.7903 6.23983 10.3711 5.81641 10.0465 5.31113C9.64848 4.69011 9.43395 4.06627 9.3535 3.28717C9.3168 2.94137 9.35914 2.56312 9.39866 2.19615C9.4029 2.16228 9.40854 2.12699 9.41419 2.0903C9.44806 1.88705 9.50452 1.54549 9.33656 1.20393C9.21659 0.956935 8.971 0.804503 8.6986 0.804503C8.61956 0.804503 8.53065 0.820028 8.45584 0.846845C7.78119 1.09243 7.54831 1.83342 7.39305 2.32318C7.37611 2.37681 7.35918 2.42903 7.34365 2.4742C6.93293 3.68519 6.77909 4.88488 6.88494 6.04083C6.92305 6.45719 7.03032 6.88767 7.19828 7.31533C6.42341 7.59479 5.68666 7.9434 5.00213 8.35695C1.8561 10.2652 -0.0154296 13.9645 9.58432e-05 18.2608Z" fill="white"/>
<path d="M22.7181 10.0436C21.5608 9.08383 20.4331 8.41906 18.985 8.00834C17.5439 7.60044 16.0605 7.55528 14.5842 7.32239C14.5673 7.31957 14.5277 7.36474 14.5461 7.37603H14.5475C13.369 7.09798 12.0832 7.18408 10.8835 7.25465C8.95268 7.36756 7.01482 7.94765 5.35782 8.94834C2.12288 10.9031 0.67195 14.6095 0.684653 18.258C0.69171 20.241 1.30003 22.1238 2.39951 23.7653C3.48347 25.3842 4.92311 26.4399 6.70854 27.1767C9.56664 28.3566 13.0528 28.7941 16.1833 28.0969C17.2179 27.9614 18.0083 27.7201 18.9948 27.4251C20.3456 27.0214 21.5721 26.3326 22.6208 25.3814C24.6179 23.5705 25.5988 20.5783 25.6454 17.9545C25.6962 15.1134 24.9877 11.9264 22.7181 10.0436Z" fill="#5E2C00"/>
<path d="M22.9962 24.3581C22.0082 25.6157 20.8184 26.3905 19.1035 27.0327C19.119 27.0242 19.1331 27.0172 19.1487 27.0087C18.148 27.3531 17.1162 27.5789 16.0563 27.7144C15.6808 27.7624 15.3054 27.8104 14.93 27.8443C12.7183 28.1096 10.4502 27.8824 8.27095 27.2402C6.55045 26.7321 4.91886 25.9558 3.67541 24.6418C2.38115 23.2755 1.5343 21.579 1.17863 19.7386C0.406587 15.7485 1.93938 11.3054 5.48483 9.16288C7.02609 8.23135 8.91879 7.71901 10.707 7.5934C12.4882 7.46919 14.5249 7.32099 16.1156 8.30616C16.1748 8.34285 16.3019 8.18195 16.2468 8.14102C16.1029 8.03375 15.9547 7.94201 15.8022 7.85733C16.3654 7.97306 16.9553 8.00553 17.5241 8.08457C18.7478 8.25393 20.0788 8.77192 21.1162 9.43246C22.2453 10.1523 23.4196 11.2334 24.0745 12.4105C24.7209 13.5721 24.9863 15.016 25.1345 16.3173C25.4817 19.3518 24.9072 21.9234 22.9976 24.3539L22.9962 24.3581Z" fill="#ED1C28"/>
<g style="mix-blend-mode:screen">
<path d="M3.56814 24.1901C1.85893 21.1683 0.924573 17.2799 2.20613 13.9264C3.15742 11.4395 5.19691 9.49313 7.55396 8.21863C6.82567 8.4628 6.12561 8.77755 5.48483 9.16427C1.93938 11.3068 0.406587 15.7499 1.17863 19.74C1.5343 21.5804 2.38256 23.2755 3.67541 24.6432C3.80808 24.7843 3.9464 24.9184 4.08895 25.0468C3.90547 24.7646 3.73045 24.478 3.56814 24.1901Z" fill="#FDE8E9"/>
</g>
<g style="mix-blend-mode:multiply">
<path d="M25.1345 16.3215C24.9863 15.0202 24.7195 13.5763 24.0745 12.4147C23.4196 11.2376 22.2453 10.1565 21.1162 9.43667C20.0788 8.77472 18.7479 8.25815 17.5242 8.08878C16.9554 8.00974 16.3668 7.97586 15.8023 7.86154C15.9533 7.94622 16.1029 8.03938 16.2469 8.14523C16.3019 8.18616 16.1749 8.34706 16.1156 8.31037C14.5249 7.32521 12.4883 7.4734 10.7071 7.59761C9.75297 7.66394 8.77063 7.84178 7.8264 8.13394C8.09174 8.69004 8.57021 9.1558 9.13195 9.46349C10.182 10.0393 11.3013 10.0577 12.4699 10.0916C12.5405 10.093 12.5617 10.1692 12.5236 10.22C11.7925 11.1544 10.5377 11.462 9.42411 11.6568C8.01553 11.9038 6.6013 12.2059 5.16589 12.1917C6.00568 13.1769 7.61751 13.3703 8.82426 13.4183C10.5292 13.486 12.0818 12.9991 13.6499 12.3823C13.6724 12.3738 13.7077 12.3823 13.7233 12.402C14.7776 13.7146 15.9265 14.9496 16.9512 16.2862C17.8305 17.4351 18.5672 18.6715 18.6942 20.1464C18.8961 22.4978 17.4141 24.6389 15.4565 25.8274C13.0486 27.2882 10.0381 27.3474 7.37334 26.6446C6.63235 26.4484 5.89841 26.1943 5.18424 25.8838C6.12706 26.4907 7.1828 26.9226 8.27523 27.2444C10.4544 27.8866 12.7226 28.1138 14.9342 27.8485C15.3097 27.8146 15.6851 27.7666 16.0606 27.7186C17.1205 27.5831 18.1523 27.3573 19.1529 27.0129C19.1374 27.02 19.1233 27.0285 19.1078 27.0369C20.8226 26.3947 22.0125 25.6199 23.0004 24.3623C24.9115 21.9319 25.4859 19.3589 25.1373 16.3258L25.1345 16.3215Z" fill="#DB4726"/>
</g>
<path d="M24.0575 8.65899C23.0921 9.4649 21.8204 9.47337 20.6221 9.58346C19.9475 9.64556 19.3095 9.60181 18.6857 9.48184C19.6356 9.19109 20.5953 8.32307 21.0314 7.65406C21.4563 7.00199 21.6976 6.27371 21.6581 5.49179C21.6285 4.92158 21.2869 4.06626 20.7054 3.86302C20.5953 3.82491 20.4344 4.06768 20.4669 4.15942C20.9849 5.60188 19.6624 6.78605 18.498 7.40707C17.836 7.75992 17.0682 7.89541 16.3258 7.90388C16.0689 7.90671 15.8191 7.87283 15.5651 7.83331C15.5453 7.82343 15.5255 7.81779 15.5058 7.81073C15.3294 7.69499 15.1882 7.55103 15.0753 7.39013C15.0555 7.32097 15.0344 7.25181 15.016 7.18124C14.8961 6.72395 14.7719 6.27088 14.714 5.80088C14.7888 4.52921 15.4592 3.09098 16.0661 2.43185C16.3456 2.1284 17.0033 1.90822 17.112 1.4608C17.2305 0.979515 16.3103 0.788975 16.0238 0.731107C14.8184 0.48411 14.0309 1.3493 13.671 2.41774C13.5496 2.77906 13.4776 3.12909 13.448 3.48053C13.3788 3.92936 13.3675 4.3923 13.3901 4.80866C13.4211 5.37887 13.4846 5.94061 13.5072 6.51223C13.5171 6.75923 13.5425 7.04716 13.5453 7.34214C13.4296 7.47481 13.3139 7.60749 13.1981 7.74016C11.6611 7.83331 10.2892 6.954 9.47484 5.68515C9.00766 4.95686 8.76772 4.22716 8.67739 3.36338C8.63505 2.94984 8.67739 2.53912 8.72256 2.1284C8.74373 1.92798 8.81994 1.70216 8.72679 1.51162C8.72115 1.49891 8.70703 1.49327 8.69433 1.4975C8.2822 1.64711 8.12271 2.33164 7.99709 2.70143C7.64001 3.75293 7.46923 4.87782 7.57085 5.98578C7.7007 7.39719 8.79595 9.10076 10.2257 9.56934C10.6407 9.77682 11.105 9.89679 11.5087 9.85868C11.3661 9.93772 11.2236 10.0153 11.0782 10.0859C10.2892 10.4783 9.47202 10.8128 8.63646 11.088C7.86019 11.3421 7.05286 11.4917 6.24413 11.5947C5.71344 11.6625 5.00632 11.5947 4.51515 11.8092C4.44176 11.8417 4.30485 11.9885 4.34719 12.0802C4.57584 12.5615 5.86163 12.8057 6.30764 12.937C7.23635 13.2122 8.25962 13.1727 9.20808 13.0527C10.7733 12.8523 12.4924 12.2637 13.7246 11.2207C14.0845 12.1127 14.786 12.8706 15.5538 13.4493C16.5785 14.2199 18.1705 15.04 19.4874 15.0315C19.5692 15.0315 19.8106 14.7803 19.6977 14.7323C18.1324 14.0774 17.1543 12.7464 16.4486 11.2828C17.7697 11.7119 19.4761 11.4183 20.6673 11.1544C21.5579 10.9568 22.4429 10.594 23.1457 10.0041C23.5028 9.70484 24.145 9.18121 24.1888 8.67875C24.1958 8.59547 24.0928 8.62652 24.0575 8.65616V8.65899Z" fill="#5E2C00"/>
<path d="M23.6905 9.19816C23.2968 9.64699 22.9072 9.99279 22.3836 10.2864C21.6765 10.683 20.8607 10.8636 20.0703 11.0048C19.167 11.1671 17.9038 11.3252 16.8198 11.1092C16.5686 11.1332 16.2933 11.0753 16.052 10.9765C16.0689 11.1106 16.0915 11.2433 16.107 11.3788C16.6109 12.6773 17.5439 13.8276 18.7111 14.5926C17.7386 14.3512 16.769 13.8106 15.9913 13.3011C15.1515 12.7507 14.3894 11.9504 13.9504 11.0203C13.9532 11.0175 13.9575 11.0146 13.9603 11.0118C13.9405 10.9808 13.9194 10.9497 13.8996 10.9201C13.7486 11.0302 13.5863 11.1233 13.4084 11.1854C12.244 11.9208 11.0076 12.4148 9.6188 12.6702C8.7522 12.8297 7.89124 12.8297 7.0204 12.7168C6.57863 12.6589 6.15662 12.5206 5.73743 12.3724C5.50878 12.292 5.03596 12.1833 4.77344 11.997C5.28013 11.8897 5.92091 11.925 6.38385 11.8657C7.19541 11.7599 7.99145 11.5595 8.76772 11.3026C9.79946 10.9624 10.7126 10.4444 11.6385 9.92927C11.7571 9.81636 11.8756 9.70204 11.9956 9.59054C11.9476 9.61735 11.8982 9.64417 11.8502 9.67099C11.8516 9.65546 11.8488 9.64276 11.8333 9.6357C11.4889 9.47339 11.0824 9.41411 10.7183 9.29979C10.2624 9.15724 9.86015 8.89048 9.42967 8.69147C8.7522 8.14667 8.25679 7.36475 7.97028 6.4812C7.66682 5.54968 7.7501 4.49253 7.94487 3.5483C8.03944 3.08818 8.18622 2.62665 8.34289 2.18629C8.38382 2.03809 8.47415 1.93224 8.6167 1.86872C8.58424 2.05785 8.54472 2.24416 8.51508 2.43329C8.1213 4.94136 9.92367 7.68514 12.4586 7.91943C12.4529 7.92366 12.4473 7.92649 12.4416 7.93213L12.4331 7.93919C12.4642 7.93637 12.4938 7.93496 12.5249 7.93496C12.5249 7.93213 12.5249 7.9279 12.5249 7.92649C12.5729 7.92931 12.6209 7.93072 12.6689 7.93213C12.9074 7.92931 13.1459 7.92508 13.3576 7.80369C13.4254 7.76559 13.4861 7.72042 13.5411 7.67243C13.5157 8.10432 13.4141 8.51787 13.1149 8.7945C13.0951 8.81285 13.0669 8.86366 13.0499 8.91306C13.901 8.51363 13.7937 7.40709 13.7161 6.57577C13.6639 6.01544 13.6357 5.45088 13.6244 4.88773C13.6145 4.4149 13.6568 3.96184 13.7232 3.50596C13.7288 3.2759 13.7443 3.04584 13.7726 2.81437C13.8813 2.31755 14.1071 1.81933 14.4021 1.45659C14.8961 0.849688 15.6046 0.969657 16.2439 1.13903C17.4521 1.458 16.2355 1.99434 15.8473 2.41353C15.3209 2.98233 14.9906 3.63298 14.7408 4.36409C14.7267 4.40361 14.714 4.44596 14.7013 4.48971C14.6815 4.51229 14.666 4.53346 14.6618 4.54475C14.6053 4.75364 14.5601 4.96676 14.5263 5.18412C14.4924 6.69574 14.841 8.21865 15.8629 9.34213C15.6413 8.8806 15.4338 8.42471 15.2616 7.95048C15.3251 7.97871 15.39 8.00411 15.455 8.02387C15.7584 8.11703 16.0718 8.14525 16.3837 8.19042C16.4077 8.19042 16.4303 8.19042 16.4542 8.19183C17.51 8.19465 18.5445 7.75853 19.4126 7.10081C20.2354 6.47838 20.9595 5.47628 20.8705 4.44031C21.1698 4.77481 21.3137 5.33373 21.3702 5.70634C21.4803 6.41769 21.1387 7.20385 20.7195 7.75288C20.1521 8.4967 19.2375 9.04573 18.299 9.25462C18.2058 9.29696 18.1127 9.33648 18.0153 9.37318C17.8459 9.43528 17.6779 9.53267 17.5043 9.60888C18.3568 9.92222 19.2757 10.038 20.1931 9.97162C21.3815 9.88552 22.7703 9.86717 23.7682 9.13042C23.7357 9.15865 23.7089 9.18405 23.6934 9.20099L23.6905 9.19816Z" fill="#009C45"/>
<g style="mix-blend-mode:multiply">
<path d="M13.8305 10.2327C13.4692 9.93067 12.8905 10.5108 12.6111 10.7112C11.7233 11.3477 10.5208 11.726 9.47349 11.9941C8.43188 12.2623 7.36203 12.3922 6.28654 12.347C5.85323 12.3287 5.29432 12.2793 4.97816 11.9617C4.90759 11.9716 4.83843 11.9829 4.77209 11.997C5.03462 12.1833 5.50744 12.292 5.73609 12.3724C6.15386 12.5206 6.57729 12.6589 7.01906 12.7168C7.88989 12.8297 8.75085 12.8297 9.61746 12.6702C11.0063 12.4147 12.2427 11.9193 13.4071 11.1854C13.5256 11.1445 13.6357 11.0894 13.7416 11.0245C13.9039 10.7606 14.0338 10.4021 13.8319 10.2341L13.8305 10.2327Z" fill="#009C45"/>
</g>
<g style="mix-blend-mode:multiply">
<path d="M16.3809 8.18619C16.0689 8.13962 15.7556 8.1128 15.4522 8.01965C15.3872 7.99989 15.3223 7.97448 15.2588 7.94625C15.28 8.00271 15.3011 8.05775 15.3237 8.11421C15.9645 9.45081 17.4945 10.4374 18.927 10.5658C19.9023 10.6533 20.9171 10.4684 21.8049 10.0521C22.0321 9.94481 22.2523 9.82766 22.4697 9.70487C21.7244 9.88976 20.9185 9.91799 20.1874 9.97021C19.27 10.0365 18.3512 9.92081 17.4987 9.60748C17.6723 9.53126 17.8417 9.43388 18.0096 9.37177C18.107 9.33508 18.2002 9.29556 18.2933 9.25322C19.2319 9.04433 20.1465 8.49529 20.7139 7.75148C21.1331 7.20244 21.4746 6.41629 21.3645 5.70494C21.3067 5.33233 21.1641 4.77341 20.8649 4.4389C20.9552 5.47488 20.2298 6.47557 19.4069 7.09941C18.5389 7.75712 17.5043 8.19325 16.4486 8.19043C16.4246 8.19043 16.402 8.19043 16.378 8.18901L16.3809 8.18619Z" fill="#009C45"/>
</g>
<g style="mix-blend-mode:multiply">
<path d="M15.5411 1.04584C15.6963 1.28014 15.6907 1.56665 15.4931 1.77695C15.1106 2.18485 14.6971 2.49959 14.4571 3.02746C13.6046 4.90604 13.8827 7.21228 15.3604 8.67168C14.7239 7.647 14.4966 6.40778 14.5235 5.17703C14.5573 4.95968 14.6025 4.74514 14.6589 4.53767C14.6618 4.52638 14.6787 4.50379 14.6985 4.48262C14.7112 4.44028 14.7253 4.39653 14.738 4.35701C14.9878 3.6259 15.3181 2.97524 15.8445 2.40644C16.2327 1.98725 17.4493 1.45092 16.2411 1.13194C15.9998 1.06843 15.75 1.01197 15.5044 0.999268C15.5171 1.01479 15.5298 1.02891 15.5411 1.04584Z" fill="#009C45"/>
</g>
<g style="mix-blend-mode:multiply">
<path d="M15.5284 11.2814C15.6695 11.8389 15.9264 12.3639 16.275 12.8212C16.8311 13.5467 17.5608 14.1014 18.3738 14.498C18.4853 14.5333 18.5968 14.5657 18.7097 14.594C17.5439 13.829 16.6095 12.6787 16.1057 11.3802C16.1014 11.3421 16.0958 11.304 16.0901 11.2659C15.9179 10.8876 15.8304 10.4642 15.7274 10.0309C15.3407 10.2412 15.4381 10.9314 15.527 11.2814H15.5284Z" fill="#009C45"/>
</g>
<g style="mix-blend-mode:multiply">
<path d="M9.42554 8.68862C9.85602 8.88762 10.2583 9.15438 10.7142 9.29693C11.0797 9.41126 11.4848 9.47195 11.8292 9.63285C11.9223 9.60462 12.0126 9.57075 12.1002 9.52417C10.5406 9.04006 9.28581 7.7712 8.7283 6.24406C8.25548 4.94556 7.98449 3.3422 8.44179 1.98584C8.3938 2.03947 8.35851 2.1044 8.33734 2.18203C8.17927 2.6238 8.03389 3.08392 7.93933 3.54403C7.74596 4.48827 7.66269 5.54541 7.96473 6.47694C8.25266 7.36048 8.74806 8.1424 9.42413 8.6872L9.42554 8.68862Z" fill="#009C45"/>
</g>
</svg>
