<svg width="17" height="17" viewBox="0 0 17 17" fill="none" xmlns="http://www.w3.org/2000/svg">
<path d="M8.03963 16.0793C3.60803 16.0793 0 12.4712 0 8.03963C0 3.60803 3.60803 0 8.03963 0C12.4712 0 16.0793 3.60803 16.0793 8.03963C16.0793 12.4712 12.4712 16.0793 8.03963 16.0793ZM8.03963 1.17653C4.2512 1.17653 1.17653 4.25904 1.17653 8.03963C1.17653 11.8202 4.2512 14.9027 8.03963 14.9027C11.8281 14.9027 14.9027 11.8202 14.9027 8.03963C14.9027 4.25904 11.8281 1.17653 8.03963 1.17653Z" fill="#292D32"/>
<path d="M16.2756 16.8635C16.1266 16.8635 15.9776 16.8086 15.8599 16.691L14.2912 15.1223C14.0638 14.8948 14.0638 14.5183 14.2912 14.2908C14.5187 14.0634 14.8952 14.0634 15.1226 14.2908L16.6914 15.8595C16.9188 16.087 16.9188 16.4635 16.6914 16.691C16.5737 16.8086 16.4247 16.8635 16.2756 16.8635Z" fill="#292D32"/>
</svg>
