<svg width="21" height="20" viewBox="0 0 21 20" fill="none" xmlns="http://www.w3.org/2000/svg">
<path d="M15.1835 0H6.80353C3.16353 0 0.99353 2.17 0.99353 5.81V14.18C0.99353 17.83 3.16353 20 6.80353 20H15.1735C18.8135 20 20.9835 17.83 20.9835 14.19V5.81C20.9935 2.17 18.8235 0 15.1835 0ZM16.9935 10.75H11.7435V16C11.7435 16.41 11.4035 16.75 10.9935 16.75C10.5835 16.75 10.2435 16.41 10.2435 16V10.75H4.99353C4.58353 10.75 4.24353 10.41 4.24353 10C4.24353 9.59 4.58353 9.25 4.99353 9.25H10.2435V4C10.2435 3.59 10.5835 3.25 10.9935 3.25C11.4035 3.25 11.7435 3.59 11.7435 4V9.25H16.9935C17.4035 9.25 17.7435 9.59 17.7435 10C17.7435 10.41 17.4035 10.75 16.9935 10.75Z" fill="#00C27A"/>
</svg>
