<svg width="20" height="20" viewBox="0 0 20 20" fill="none" xmlns="http://www.w3.org/2000/svg">
<path d="M14.1971 0H5.8129C2.17108 0 0 2.17001 0 5.81V14.18C0 17.83 2.17108 20 5.8129 20H14.1871C17.8289 20 20 17.83 20 14.19V5.81C20.01 2.17001 17.8389 0 14.1971 0Z" fill="#00C27A"/>
<path d="M13.2826 6H3.71739C3.32522 6 3 5.54667 3 5C3 4.45333 3.32522 4 3.71739 4H13.2826C13.6748 4 14 4.45333 14 5C14 5.54667 13.6748 6 13.2826 6Z" fill="#171E2B"/>
<path d="M16.087 16H3.91304C3.41391 16 3 15.5467 3 15C3 14.4533 3.41391 14 3.91304 14H16.087C16.5861 14 17 14.4533 17 15C17 15.5467 16.5861 16 16.087 16Z" fill="#171E2B"/>
<path d="M16.087 11H3.91304C3.41391 11 3 10.5467 3 10C3 9.45333 3.41391 9 3.91304 9H16.087C16.5861 9 17 9.45333 17 10C17 10.5467 16.5861 11 16.087 11Z" fill="#171E2B"/>
</svg>
