<svg width="24" height="24" viewBox="0 0 24 24" fill="none" xmlns="http://www.w3.org/2000/svg">
<path d="M11.9081 22.7605C5.8341 22.7605 0.888916 17.8153 0.888916 11.7413C0.888916 5.66735 5.8341 0.722168 11.9081 0.722168C17.9821 0.722168 22.9272 5.66735 22.9272 11.7413C22.9272 17.8153 17.9821 22.7605 11.9081 22.7605ZM11.9081 2.33473C6.71564 2.33473 2.50148 6.55964 2.50148 11.7413C2.50148 16.923 6.71564 21.1479 11.9081 21.1479C17.1005 21.1479 21.3147 16.923 21.3147 11.7413C21.3147 6.55964 17.1005 2.33473 11.9081 2.33473Z" fill="#00C27A"/>
<path d="M23.1965 23.8354C22.9922 23.8354 22.788 23.7601 22.6267 23.5989L20.4766 21.4488C20.1649 21.137 20.1649 20.621 20.4766 20.3093C20.7884 19.9975 21.3044 19.9975 21.6162 20.3093L23.7662 22.4593C24.078 22.7711 24.078 23.2871 23.7662 23.5989C23.605 23.7601 23.4007 23.8354 23.1965 23.8354Z" fill="#00C27A"/>
</svg>
