<svg width="21" height="24" viewBox="0 0 21 24" fill="none" xmlns="http://www.w3.org/2000/svg">
<path d="M15.1644 7.99613C14.7204 7.99613 14.3523 7.62795 14.3523 7.18397V5.68962C14.3523 4.55261 13.865 3.44808 13.0203 2.67924C12.1649 1.89957 11.0603 1.54223 9.89085 1.65051C7.94168 1.8346 6.23075 3.82708 6.23075 5.90619V6.95657C6.23075 7.40055 5.86257 7.76872 5.4186 7.76872C4.97462 7.76872 4.60645 7.40055 4.60645 6.95657V5.89536C4.60645 2.98244 6.95627 0.296928 9.73924 0.0262111C11.3635 -0.125391 12.9229 0.383558 14.114 1.47726C15.2944 2.5493 15.9766 4.08697 15.9766 5.68962V7.18397C15.9766 7.62795 15.6084 7.99613 15.1644 7.99613Z" fill="#00C27A"/>
<path d="M13.5399 23.2862H7.04268C2.03983 23.2862 1.10856 20.958 0.870328 18.6948L0.0581765 12.2084C-0.060939 11.0389 -0.104254 9.36048 1.03276 8.10435C2.00734 7.02149 3.62082 6.50171 5.95981 6.50171H14.6227C16.9726 6.50171 18.586 7.03231 19.5498 8.10435C20.676 9.36048 20.6435 11.0389 20.5244 12.1868L19.7122 18.6948C19.474 20.958 18.5427 23.2862 13.5399 23.2862ZM5.95981 8.12601C4.12976 8.12601 2.87364 8.48336 2.23474 9.19805C1.70414 9.7828 1.53088 10.6816 1.67165 12.0243L2.4838 18.5107C2.66789 20.2433 3.14435 21.6727 7.04268 21.6727H13.5399C17.4382 21.6727 17.9147 20.2541 18.0987 18.5324L18.9109 12.0243C19.0517 10.7032 18.8784 9.80446 18.3478 9.20888C17.7089 8.48336 16.4528 8.12601 14.6227 8.12601H5.95981Z" fill="#00C27A"/>
<path d="M13.9952 12.8905C13.3888 12.8905 12.9015 12.4032 12.9015 11.8076C12.9015 11.212 13.3888 10.7247 13.9844 10.7247C14.5799 10.7247 15.0672 11.212 15.0672 11.8076C15.0672 12.4032 14.5908 12.8905 13.9952 12.8905Z" fill="#00C27A"/>
<path d="M6.41499 12.8905C5.80858 12.8905 5.32129 12.4032 5.32129 11.8076C5.32129 11.212 5.80858 10.7247 6.40416 10.7247C6.99974 10.7247 7.48703 11.212 7.48703 11.8076C7.48703 12.4032 7.01056 12.8905 6.41499 12.8905Z" fill="#00C27A"/>
</svg>
